<svg version="1.1" id="Layer_1" xmlns="http://www.w3.org/2000/svg" width="90" height="90" x="0" y="0" xml:space="preserve"><style>.st0{fill:#fbfbf2}</style><path class="st0" d="M20.8 18.4c-.9.7-1.6 1.4-2.5 2.2-3.7 3.8-6.1 7.1-8.3 12-1.8 4-2.8 7.4-3.4 11.8.3-4.5 1-7.9 2.8-12 2.2-5 4.6-8.4 8.3-12.3 3.9-3.7 7.4-6.1 12.3-8.2 2.8-1.1 5.3-1.9 8.4-2.4-3 .6-5.5 1.2-8.4 2.4-4.9 2.2-8.4 4.5-12.3 8.2-5.3 5.5-8.1 8.2-.1-.1 3.9-3.8 7.4-6.2 12.3-8.3 2.8-1.1 5.6-2 8.5-2.5-2.9.5-5.5 1.2-8.5 2.4-5 2.1-8.5 4.5-12.5 8.2-3.9 3.7-6.4 7.2-8.7 12.1-2.1 4.7-3.6 8.3-.2-.1 2.3-5 4.7-8.5 8.6-12.4.7-.7 1.4-1.3 2.2-1.9-.8.6-1.4 1.2-2.2 1.9-4.8 4.8-5.9 6.7-9 12.3-.1.1-.1.1 0 0 1.6-4.6 5.3-9.3 8.6-12.7 4.1-3.9 7.7-6.3 12.8-8.4 3.1-1.2 6-2 8.9-2.5-2.9.4-5.8 1.2-8.9 2.5-5.1 2.2-8.7 4.6-12.8 8.3-4 4-6.5 7.6-8.8 12.6-2.3 5.5-3.3 9.9-3.5 15.8 0 6 .8 10.4 2.8 15.9 2.2 5.3 4.6 9 8.4 13.3 4 4.1 7.7 6.6 12.9 9.1 2.3 1 4.4 1.7 6.8 2.4 3.2.8 5.9 1.1 9.2 1.2 1.2-1.2 1.2-2.4 0-3.4-20.1-.7-36.1-17.3-36-37.6.1-13.1 6.8-24.6 17-31.2-2.1 1.3-4 2.8-6.1 4.8-2.3 2.4-3.9 4 0 0 2.5-2.5 4.8-4.2 7.5-5.7.3-.2.7-.4.9-.6-1.6.9-3 1.8-4.6 2.9.9-.7 1.7-1.2 2.7-1.8-14 8.3.2-.8 4.7-3l2.4-.9c-.9.3-1.6.6-2.4.9-4.7 2.1-8.1 4.2-11.8 7.7-4.2 4.3-6.4 6.4-.1-.1 3.7-3.6 7-5.8 11.8-7.9 2.8-1.1 5.2-1.8 7.8-2.3-2.7.5-5 1.1-7.7 2.2-4.7 2-8.2 4.2-12 7.7-5.2 5.2-10 9.8-.4-.4.9-.6 1.8-1.4 2.6-2.1m13-5.4c1.3-.5 1.5-.6-.2.1l.2-.1zm35.4 66c.9-.7 1.6-1.4 2.5-2.2 3.7-3.8 6.1-7.1 8.3-12 1.8-4 2.8-7.4 3.4-11.8-.3 4.5-1 7.9-2.8 12-2.2 5-4.6 8.4-8.3 12.3-3.9 3.7-7.4 6.1-12.3 8.2-2.8 1.1-5.3 1.9-8.4 2.4 3-.5 5.5-1.2 8.4-2.4 4.9-2.2 8.4-4.5 12.3-8.2 5.3-5.5 8.1-8.2.1.1-3.9 3.8-7.4 6.2-12.3 8.3-2.8 1.1-5.6 2-8.5 2.5 2.9-.5 5.5-1.2 8.5-2.4 5-2.1 8.5-4.5 12.5-8.2 3.9-3.9 6.4-7.4 8.7-12.3 2.1-4.7 3.6-8.3.2.1-2.3 5-4.7 8.5-8.6 12.4-.7.7-1.4 1.3-2.2 1.9.8-.6 1.4-1.2 2.2-1.9 4.8-4.8 5.9-6.7 9-12.3.1-.1.1-.1 0 0-1.6 4.6-5.3 9.3-8.6 12.7-4.1 3.9-7.7 6.3-12.8 8.4-3.1 1.2-6 2.1-8.9 2.5 2.9-.5 5.8-1.2 8.9-2.5 5.1-2.2 8.7-4.6 12.8-8.3 4-4 6.5-7.6 8.8-12.6 2.3-5.4 3.3-9.9 3.5-15.7 0-6-.8-10.4-2.8-15.9-2.2-5.3-4.6-9-8.4-13.3-4-4.1-7.7-6.6-12.9-9.1-2.3-1-4.4-1.7-6.8-2.4-3.2-.8-5.9-1.1-9.2-1.2-1.3 1.1-1.2 2.3 0 3.4 20.1.7 36.1 17.3 35.9 37.6 0 13.2-6.7 24.7-17 31.3 2.1-1.3 4-2.8 6.1-4.8 2.3-2.4 3.9-4 0 0-2.5 2.5-4.8 4.2-7.5 5.7-.3.2-.7.4-.9.6 1.6-.9 3-1.8 4.6-2.9-.9.7-1.7 1.2-2.7 1.8 14-8.3-.2.8-4.7 3l-2.4.9c.9-.3 1.6-.6 2.4-.9 4.7-2.2 8-4.2 11.7-7.8 4.2-4.3 6.4-6.4.1.1-3.7 3.6-7 5.8-11.8 7.9-2.7 1-5 1.8-7.7 2.2 2.7-.5 5-1.1 7.7-2.2 4.7-2 8.2-4.2 12-7.7 5.2-5.2 10-9.8.4.5-.8.8-1.7 1.4-2.5 2.2zm-13 5.4c-1.3.5-1.5.6.2-.1l-.2.1zm8.6-4.2c-.3.2-1.1.8-.9.6-1.1.8-2.3 1.3-3.5 1.9l-.6.3c1.9-.9 3.4-1.7 5-2.8zM25.2 17.1c.3-.2 1.1-.8.9-.6 1.1-.8 2.3-1.3 3.5-1.9l.6-.3c-1.9.9-3.4 1.8-5 2.8z"/><path class="st0" d="M64.3 33.7h5.6v29.9h-5.6V35l-9.4 28.4-.1.2h-5.7l-2.7-9-.2-.7L40.6 35v28.6h-.3V33.7H46l3.3 10.9.2.7 5.2 17.6zM20.7 59.2c.7.9 1.4 1.5 2.5 1.9.9.4 2.1.6 3.3.7.5 0 1-.1 1.6-.3.7-.2 1.2-.6 1.8-1.1.6-.6 1-1.3 1.5-2.3.4-.9.7-2.1.7-3.6V33.7h5.6v20.4c0 .9-.1 1.9-.4 2.8-.3.9-.7 1.7-1.1 2.5-.5.8-1 1.4-1.8 2-.7.6-1.4 1-2.3 1.4-.6.3-1.2.5-1.9.7-.7.2-1.3.2-2 .2-1.7 0-3.3-.4-4.6-1.1s-2.5-1.9-3.3-3.3h.4v-.1z"/></svg>